HIERARCHY
ROOT root
{
	OFFSET	0	13.1	24.9
	CHANNELS 6  Xposition Yposition Zposition Xrotation Yrotation Zrotation
	JOINT spine_1
	{
		OFFSET	0	9.99999	0
		CHANNELS 3  Xrotation Yrotation Zrotation
		JOINT spine_2
		{
			OFFSET	0	112	-10
			CHANNELS 3  Xrotation Yrotation Zrotation
			JOINT spine_3
			{
				OFFSET	0	206.5	19.3
				CHANNELS 3  Xrotation Yrotation Zrotation
				JOINT spine_4
				{
					OFFSET	0	110.4	14.6
					CHANNELS 3  Xrotation Yrotation Zrotation
					JOINT neck_1
					{
						OFFSET	0	71.8	-50.3
						CHANNELS 3  Xrotation Yrotation Zrotation
						JOINT neck_2
						{
							OFFSET	0	86.2	-25.8
							CHANNELS 3  Xrotation Yrotation Zrotation
							JOINT head_ee
							{
								OFFSET	0	179.8	-8.7
								CHANNELS 3  Xrotation Yrotation Zrotation
								End Site
								{
									OFFSET	1	0	0
								}
							}
						}
					}
					JOINT left_clavicle
					{
						OFFSET	-43.2	22.4	-70.8
						CHANNELS 3  Xrotation Yrotation Zrotation
						JOINT left_shoulder
						{
							OFFSET	-93.9	-5.79999	48.7
							CHANNELS 3  Xrotation Yrotation Zrotation
							JOINT left_elbow
							{
								OFFSET	-291.4	-30.8	15.2
								CHANNELS 3  Xrotation Yrotation Zrotation
								JOINT left_lowarm_twist
								{
									OFFSET	-110.7	-3.89999	13.6
									CHANNELS 3  Xrotation Yrotation Zrotation
									JOINT left_hand
									{
										OFFSET	-110.7	-3.89999	13.6
										CHANNELS 3  Xrotation Yrotation Zrotation
										JOINT left_ee
										{
											OFFSET	-80.8	-5.10001	12.1
											CHANNELS 3  Xrotation Yrotation Zrotation
											End Site
											{
												OFFSET	1	0	0
											}
										}
									}
								}
							}
						}
					}
					JOINT right_clavicle
					{
						OFFSET	43.2	22.4	-70.8
						CHANNELS 3  Xrotation Yrotation Zrotation
						JOINT right_shoulder
						{
							OFFSET	93.9	-5.79999	48.7
							CHANNELS 3  Xrotation Yrotation Zrotation
							JOINT right_elbow
							{
								OFFSET	291.4	-30.8	15.2
								CHANNELS 3  Xrotation Yrotation Zrotation
								JOINT right_lowarm_twist
								{
									OFFSET	110.7	-3.89999	13.6
									CHANNELS 3  Xrotation Yrotation Zrotation
									JOINT right_hand
									{
										OFFSET	110.7	-3.89999	13.6
										CHANNELS 3  Xrotation Yrotation Zrotation
										JOINT right_ee
										{
											OFFSET	80.8	-5.10001	12.1
											CHANNELS 3  Xrotation Yrotation Zrotation
											End Site
											{
												OFFSET	1	0	0
											}
										}
									}
								}
							}
						}
					}
				}
			}
		}
	}
	JOINT left_hip
	{
		OFFSET	-82.8	-127.5	0.300001
		CHANNELS 3  Xrotation Yrotation Zrotation
		JOINT left_knee
		{
			OFFSET	-28.2	-396.7	2.2
			CHANNELS 3  Xrotation Yrotation Zrotation
			JOINT left_ankle
			{
				OFFSET	-11.7	-411.3	35.4
				CHANNELS 3  Xrotation Yrotation Zrotation
				JOINT left_toes
				{
					OFFSET	0	-60	-88.6
					CHANNELS 3  Xrotation Yrotation Zrotation
					JOINT left_foot_ee
					{
						OFFSET	-22.5	-16.5	-42.2
						CHANNELS 3  Xrotation Yrotation Zrotation
						End Site
						{
							OFFSET	1	0	0
						}
					}
				}
			}
		}
	}
	JOINT right_hip
	{
		OFFSET	82.8	-127.5	0.300001
		CHANNELS 3  Xrotation Yrotation Zrotation
		JOINT right_knee
		{
			OFFSET	28.2	-396.7	2.2
			CHANNELS 3  Xrotation Yrotation Zrotation
			JOINT right_ankle
			{
				OFFSET	11.7	-411.3	35.4
				CHANNELS 3  Xrotation Yrotation Zrotation
				JOINT right_toes
				{
					OFFSET	0	-60	-88.6
					CHANNELS 3  Xrotation Yrotation Zrotation
					JOINT right_foot_ee
					{
						OFFSET	22.5	-16.5	-42.2
						CHANNELS 3  Xrotation Yrotation Zrotation
						End Site
						{
							OFFSET	1	0	0
						}
					}
				}
			}
		}
	}
}
MOTION
Frames: 5
Frame Time: 0.02
3447.98306212 695.521 -1558.69262942 21.5774990002 69.1104959332 -16.9272615839 -1.65226 0.0500128 -2.44573 -1.64895 0.205493 -2.4376 -1.65526 0.781006 -2.31829 -1.66253 0.405188 -2.41247 -15.9601 16.0967 6.84042 -16.5761 26.9637 12.2232 -0.0 0.0 -0.0 2.17797 2.14403 4.36644 -30.5653 -24.0845 77.2619 0.646746 -17.7645 0.101073 -70.4813 -6.60747 5.30632 -4.63045 11.519 -25.5646 -0.0 0.0 -0.0 1.44552 19.4909 -0.833128 -13.6306 35.1409 -63.3632 1.15687 29.815 -0.30799 27.2462 -0.143226 3.44491 3.00299 -20.2234 -27.1151 0.0 0.0 0.0 -0.937801 -5.46274 -7.36009 -16.1462 0.321619 2.44875 42.3993 20.3849 -5.25399 -15.6538 0.0 0.0 -0.0 0.0 -0.0 -0.872568 34.6312 -15.6762 -27.5445 -0.130255 -4.18449 41.8622 -24.0188 5.31066 21.8456 -0.0 -0.0 0.0 0.0 0.0 
3446.60344115 690.839 -1568.34472259 18.561407651 64.7181970372 -13.5759695765 -1.79966 0.328637 -2.41928 -1.79653 0.481871 -2.39349 -1.8148 1.04521 -2.20657 -1.82095 0.683712 -2.34386 -17.7572 17.8002 8.49944 -18.6602 29.6604 14.9803 -0.0 0.0 -0.0 1.8517 2.05147 3.74248 -31.4048 -24.628 78.2167 0.63984 -17.5865 0.0989764 -69.7016 -6.50795 5.29948 -4.51871 9.88251 -25.8171 -0.0 0.0 -0.0 2.86192 21.3016 -3.69933 -10.4695 36.6664 -62.5829 1.06091 27.7233 -0.261803 28.1049 -0.121029 3.55235 3.41075 -20.5063 -30.0053 0.0 0.0 0.0 4.25778 -4.01212 -10.8229 -23.6009 0.235532 3.58855 41.7834 17.5397 -5.13516 -14.6303 0.0 0.0 -0.0 0.0 -0.0 -2.31534 35.3016 -14.8966 -25.7213 -0.18403 -3.90985 42.0326 -22.7654 5.28731 24.2916 -0.0 -0.0 0.0 0.0 0.0 
3438.9664551 690.184 -1572.50007606 20.1992886968 64.9353194096 -15.2669974128 -2.00352 0.155519 -2.06404 -2.0012 0.286517 -2.04998 -2.00975 0.779056 -1.91775 -2.01458 0.466472 -2.01667 -19.1972 17.5186 8.74783 -20.2051 29.2516 15.5357 -0.0 0.0 -0.0 1.63434 1.9917 3.32649 -31.7941 -24.7768 79.1377 0.617994 -17.0214 0.0924785 -69.1282 -6.43481 5.29358 -4.23268 9.31114 -24.1259 -0.0 0.0 -0.0 3.30532 22.1145 -4.57634 -7.66745 37.9108 -63.3212 1.06067 27.7179 -0.26169 25.3503 -0.186511 3.20661 3.53789 -23.5812 -31.5276 0.0 0.0 0.0 6.59162 -1.23717 -12.5489 -29.2813 0.070923 4.44441 41.1765 14.6872 -5.03195 -12.3868 0.0 0.0 -0.0 0.0 -0.0 -1.65146 35.7569 -15.8191 -28.7395 -0.0902783 -4.36352 41.8001 -21.1987 5.22222 25.7722 -0.0 -0.0 0.0 0.0 0.0 
3431.26359621 684.132 -1573.62290396 20.3603022699 65.6891218689 -15.5524391539 -2.07326 0.223723 -2.0234 -2.07105 0.351997 -2.00507 -2.08185 0.833929 -1.85714 -2.08627 0.530223 -1.96549 -20.0912 18.413 9.52741 -21.307 30.7507 16.9781 -0.0 0.0 -0.0 1.2703 1.62671 2.60363 -31.1861 -25.3342 80.2411 0.577269 -15.9587 0.0809181 -68.9342 -6.41008 5.29142 -4.1486 8.57939 -23.9712 -0.0 0.0 -0.0 3.96208 23.2182 -5.88862 -5.23077 38.7033 -63.6513 1.06075 27.7196 -0.261726 26.3807 -0.163964 3.3363 3.79657 -22.0546 -33.0772 0.0 0.0 0.0 12.0454 0.742426 -12.9386 -35.3886 -0.199751 5.34201 41.2266 14.2307 -5.02956 -9.83157 0.0 0.0 -0.0 0.0 -0.0 -2.31576 35.7688 -16.0161 -28.6126 -0.0946998 -4.34455 42.3767 -20.4051 5.25253 27.3961 -0.0 -0.0 0.0 0.0 0.0 
3424.37128932 684.044 -1570.75040108 18.0621107408 67.0304596937 -13.0119607173 -1.93266 0.123141 -1.93996 -1.9306 0.246313 -1.9282 -1.93738 0.707962 -1.8104 -1.94171 0.413213 -1.89945 -22.2494 17.8548 9.90941 -23.596 29.8667 17.7746 -0.0 0.0 -0.0 1.50702 2.05085 3.09121 -31.8203 -25.1479 80.3155 0.543862 -15.0784 0.0719801 -68.7798 -6.3904 5.28964 -3.97461 8.02494 -23.0642 -0.0 0.0 -0.0 4.37425 24.3315 -6.67199 -3.45003 39.6031 -62.8879 1.17386 30.1767 -0.316486 24.8823 -0.195981 3.14757 3.87455 -24.4711 -34.0611 0.0 0.0 0.0 15.8258 1.68011 -13.8288 -39.399 -0.428977 5.91398 38.1829 12.2351 -4.73244 -8.93096 0.0 0.0 -0.0 0.0 -0.0 -2.56826 36.3256 -15.9562 -26.863 -0.151382 -4.08202 41.5852 -18.6612 5.14142 28.245 -0.0 -0.0 0.0 0.0 0.0 
